# xmcd
#
# Track frame offsets:
#	150
#	16012
#	31665
#	45775
#	61562
#	79857
#	96997
#	111577
#	128217
#	144000
#
# Disc length: 2191 seconds
# Revision: 0
# Processed by: cddbd v1.5.2PL0 Copyright (c) Steve Scherf et al.
# Submitted via: dBpowerAMP V12.0
#
DISCID=6c088d0a
DTITLE=Tracy Nelson - I Feel so Good
DYEAR=1995
DGENRE=Blues
TTITLE0=I Want to Know
TTITLE1=I Need All The Help I Can Get
TTITLE2=Don't go no Further
TTITLE3=Send me to The 'Lectric Chair
TTITLE4=Words Unspoken
TTITLE5=The Fool
TTITLE6=I Live Off The Love You Give me
TTITLE7=I Feel so Good
TTITLE8=Meet me Halfway
TTITLE9=Love Won't Come
EXTD=
EXTT0=
EXTT1=
EXTT2=
EXTT3=
EXTT4=
EXTT5=
EXTT6=
EXTT7=
EXTT8=
EXTT9=
PLAYORDER=
